<svg xmlns="http://www.w3.org/2000/svg" viewBox="0 0 224 224" width="800" height="800" role="img" aria-label="Urban Backpack">
  <defs><linearGradient id="bg" x1="0" x2="1" y1="0" y2="1"><stop stop-color="#fff7ed"/><stop offset="1" stop-color="#ffedd5"/></linearGradient><filter id="shadow" x="-20%" y="-20%" width="140%" height="140%"><feDropShadow dx="0" dy="12" stdDeviation="10" flood-color="#9a3412" flood-opacity=".18"/></filter></defs>
  <rect width="224" height="224" rx="34" fill="url(#bg)"/>
  <circle cx="178" cy="46" r="28" fill="#fed7aa" opacity=".7"/>
  <circle cx="44" cy="182" r="34" fill="#fdba74" opacity=".35"/>
  <g filter="url(#shadow)"><path d="M68 82c0-24 20-42 44-42s44 18 44 42v92c0 16-12 28-28 28H96c-16 0-28-12-28-28V82z" fill="#374151"/><path d="M84 90h56v42H84z" fill="#ff7a45" opacity=".95"/><path d="M88 158h48" stroke="#f8fafc" stroke-width="6" stroke-linecap="round"/><path d="M66 104c-18 16-20 48-10 72M158 104c18 16 20 48 10 72" fill="none" stroke="#111827" stroke-width="8" stroke-linecap="round"/></g>
</svg>