<svg xmlns="http://www.w3.org/2000/svg" viewBox="0 0 224 224" width="800" height="800" role="img" aria-label="Mechanical Keyboard">
  <defs><linearGradient id="bg" x1="0" x2="1" y1="0" y2="1"><stop stop-color="#fff7ed"/><stop offset="1" stop-color="#ffedd5"/></linearGradient><filter id="shadow" x="-20%" y="-20%" width="140%" height="140%"><feDropShadow dx="0" dy="12" stdDeviation="10" flood-color="#9a3412" flood-opacity=".18"/></filter></defs>
  <rect width="224" height="224" rx="34" fill="url(#bg)"/>
  <circle cx="178" cy="46" r="28" fill="#fed7aa" opacity=".7"/>
  <circle cx="44" cy="182" r="34" fill="#fdba74" opacity=".35"/>
  <g filter="url(#shadow)"><rect x="42" y="82" width="140" height="82" rx="18" fill="#f8fafc" stroke="#d1d5db" stroke-width="5"/><g fill="#111827"><rect x="58" y="102" width="18" height="14" rx="3"/><rect x="82" y="102" width="18" height="14" rx="3"/><rect x="106" y="102" width="18" height="14" rx="3"/><rect x="130" y="102" width="18" height="14" rx="3"/><rect x="58" y="124" width="18" height="14" rx="3"/><rect x="82" y="124" width="42" height="14" rx="3"/><rect x="130" y="124" width="18" height="14" rx="3"/></g><rect x="154" y="102" width="18" height="36" rx="5" fill="#ff7a45"/></g>
</svg>