<svg xmlns="http://www.w3.org/2000/svg" viewBox="0 0 224 224" width="800" height="800" role="img" aria-label="CloudStep Sneakers">
  <defs><linearGradient id="bg" x1="0" x2="1" y1="0" y2="1"><stop stop-color="#fff7ed"/><stop offset="1" stop-color="#ffedd5"/></linearGradient><filter id="shadow" x="-20%" y="-20%" width="140%" height="140%"><feDropShadow dx="0" dy="12" stdDeviation="10" flood-color="#9a3412" flood-opacity=".18"/></filter></defs>
  <rect width="224" height="224" rx="34" fill="url(#bg)"/>
  <circle cx="178" cy="46" r="28" fill="#fed7aa" opacity=".7"/>
  <circle cx="44" cy="182" r="34" fill="#fdba74" opacity=".35"/>
  <g filter="url(#shadow)"><path d="M50 142c38 2 59-38 83-18 17 14 28 25 52 28 8 1 14 8 12 17-2 8-8 13-18 13H58c-20 0-28-19-8-40z" fill="#f8fafc" stroke="#d1d5db" stroke-width="5"/><path d="M102 130l26 22M122 126l24 20" stroke="#ff7a45" stroke-width="6" stroke-linecap="round"/><path d="M56 170h132" stroke="#111827" stroke-width="8" stroke-linecap="round"/></g>
</svg>